<?xml version="1.0" encoding="UTF-8"?>
<svg width="146px" height="47px" viewBox="0 0 146 47" version="1.1" xmlns="http://www.w3.org/2000/svg" xmlns:xlink="http://www.w3.org/1999/xlink">
    <!-- Generator: Sketch 52.6 (67491) - http://www.bohemiancoding.com/sketch -->
    <title>Google-button</title>
    <desc>Created with Sketch.</desc>
    <g id="Home-Page" stroke="none" stroke-width="1" fill="none" fill-rule="evenodd">
        <g id="Advisor-Signup" transform="translate(-311.000000, -4961.000000)">
            <g id="Google-button" transform="translate(311.000000, 4961.000000)">
                <path d="M140.1826,45.5618906 L4.8616,45.5618906 C2.4646,45.5618906 0.5216,43.6198906 0.5216,41.2228906 L0.5216,4.90089056 C0.5216,2.50389056 2.4646,0.561890563 4.8616,0.561890563 L140.1826,0.561890563 C142.5786,0.561890563 144.5216,2.50389056 144.5216,4.90089056 L144.5216,41.2228906 C144.5216,43.6198906 142.5786,45.5618906 140.1826,45.5618906 Z" id="Stroke-6" stroke="#D9D9DD"></path>
                <path d="M79.1914,27.6937906 C82.7424,25.7507906 85.4544,24.2657906 85.7014,24.1307906 C86.4364,23.7277906 87.2074,22.7007906 85.7014,21.8787906 C85.2164,21.6147906 82.5774,20.1747906 79.1874,18.3257906 L74.5244,23.0237906 L79.1914,27.6937906 Z" id="Fill-8" fill="#FFE300"></path>
                <path d="M74.5244,23.0237906 L59.6104,38.0507906 C59.9474,38.0937906 60.3524,38.0047906 60.8184,37.7507906 C61.7834,37.2217906 72.1424,31.5517906 79.1914,27.6937906 L74.5244,23.0237906 Z" id="Fill-10" fill="#FF4E54"></path>
                <path d="M74.5244,23.0237906 L79.1874,18.3257906 C79.1874,18.3257906 61.8564,8.87079056 60.8184,8.30379056 C60.4204,8.08579056 59.9854,8.00979056 59.6004,8.09579056 L74.5244,23.0237906 Z" id="Fill-12" fill="#00F085"></path>
                <path d="M74.5244,23.0237906 L59.5994,8.09579056 C58.9834,8.23379056 58.4784,8.76779056 58.4784,9.83979056 L58.4784,36.2597906 C58.4784,37.2707906 58.8764,37.9807906 59.6104,38.0507906 L74.5244,23.0237906 Z" id="Fill-14" fill="#00E0FF"></path>
            </g>
        </g>
    </g>
</svg>