<?xml version="1.0" encoding="UTF-8"?>
<svg width="52px" height="62px" viewBox="0 0 52 62" version="1.1" xmlns="http://www.w3.org/2000/svg" xmlns:xlink="http://www.w3.org/1999/xlink">
    <!-- Generator: Sketch 52.6 (67491) - http://www.bohemiancoding.com/sketch -->
    <title>icon3</title>
    <desc>Created with Sketch.</desc>
    <g id="Home-Page" stroke="none" stroke-width="1" fill="none" fill-rule="evenodd">
        <g id="Advisor-Signup" transform="translate(-934.000000, -1680.000000)">
            <g id="icon3" transform="translate(934.500000, 1680.150124)">
                <polyline id="Fill-115" fill="#FFB960" points="13.7540909 37.3041205 10 45.0993279 11.8777492 53.9417151 22.2588591 59.7012047 36.9585108 60 46.3641482 54.9316492 50 44.8661558 46.3641482 36.8377764 46.0699581 28.4030912 41.7303023 20.9555476 33.6956751 17 28.0061231 17.34906 19.1494528 21.0728318 15.513601 27.1227392 13.7540909 37.3041205"></polyline>
                <path d="M37.877995,1 L28.4770036,3.81432118 L20,1.90552724 L22.6728174,10.8817457 L24.5538419,12 C27.9413385,10.336992 31.8631231,10.336992 35.2506197,12 L40,3.24656997 L37.877995,1" id="Fill-116" fill="#FFB960"></path>
                <path d="M23.4562994,12 C22.9602488,12 22.5139414,11.7320467 22.2914786,11.301167 C21.0700057,8.93267504 20.0682321,6.56418312 19.2295058,4.06104129 C18.5676443,1.90529623 19.5044754,0.872531418 19.938347,0.529174147 C20.369455,0.191202873 20.8889955,0.0175044883 21.4817692,0.0175044883 C22.0565799,0.0175044883 22.6825157,0.188509874 23.2877251,0.511669659 C25.3465426,1.494614 27.6485492,2.00763016 29.9726639,2.00763016 C32.328559,2.00763016 34.6747819,1.48114901 36.7598527,0.484739677 C37.3747344,0.158886894 37.9495452,0 38.489812,0 C39.2691228,0 39.8038626,0.327199282 40.0539606,0.522441652 C40.4878322,0.863105925 41.4274267,1.88509874 40.7780011,4.02737882 C39.9351295,6.53859964 38.9278289,8.92324955 37.7035925,11.301167 C37.4811297,11.7307002 37.0334405,12 36.5373899,12 C36.3342716,12 36.1380622,11.954219 35.9542885,11.8640036 C35.3131534,11.5502693 35.0533832,10.7854578 35.3753325,10.1593357 C36.4517209,8.07091562 37.342954,6.0013465 38.0987749,3.82944345 C38.1802985,3.5978456 38.1125925,3.33931777 37.9274371,3.17369838 C37.8072242,3.06597846 37.6524675,3.00942549 37.496329,3.00942549 C37.4106601,3.00942549 37.3236094,3.02692998 37.2420858,3.06193896 C35.5425251,3.78366248 33.7338056,4.24551167 31.8684341,4.43671454 C31.5437212,4.46903052 31.2977686,4.73563734 31.2977686,5.05341113 C31.2977686,5.06822262 31.2977686,5.08438061 31.2991503,5.0991921 L31.2991503,6.95062837 C31.2991503,7.6508079 30.7146672,8.22037702 29.9961538,8.22037702 C29.2776403,8.22037702 28.6931572,7.6508079 28.6931572,6.95062837 L28.6931572,5.06014363 C28.6931572,4.74236984 28.4472045,4.47307002 28.12111,4.44210054 C26.2612655,4.25628366 24.4553095,3.79443447 22.7571306,3.06732496 C22.6742252,3.03231598 22.5871745,3.01481149 22.5001238,3.01481149 C22.3439853,3.01481149 22.1906103,3.07136445 22.0703975,3.17908438 C21.8852421,3.34470377 21.8161543,3.6018851 21.8976779,3.83482944 C22.6521171,6.0067325 23.5433501,8.07495512 24.6197386,10.1606822 C24.7758771,10.462298 24.8007487,10.8070018 24.6915899,11.1288151 C24.5824311,11.4506284 24.350296,11.7118492 24.0407825,11.8640036 C23.8570089,11.954219 23.6607994,12 23.4562994,12" id="Fill-117" fill="#243960"></path>
                <path d="M29.1724868,17.6478254 C21.9497339,17.6478254 16.0630222,23.3871204 15.1741974,31.2954982 L15.0059656,32.9493362 C14.8839975,34.1567221 14.9176438,35.3837632 15.1097085,36.5953609 C15.1685896,36.9674042 15.0662486,37.3464673 14.8293221,37.6384862 C13.0951325,39.7710667 12.0268604,42.176011 11.7394644,44.5963986 C11.3315022,47.5418587 12.2848159,50.5518999 14.4283696,53.0565237 C17.1859696,56.2799634 21.4913022,58.2468793 25.9452397,58.319884 C27.3023097,58.343751 28.6663894,58.3563864 29.9996265,58.3563864 C31.3314618,58.3563864 32.6941395,58.343751 34.0484057,58.319884 C38.5023431,58.2496872 42.8118816,56.2771555 45.5764912,53.0424844 C47.7172411,50.5364566 48.6691528,47.5474744 48.2597887,44.6230734 C47.965383,42.1605677 46.895709,39.7429879 45.168529,37.6441019 C44.9259948,37.3506791 44.8222518,36.9674042 44.8825349,36.5897452 C45.0830112,35.364108 45.1180595,34.1398749 44.9890817,32.953548 L44.8166441,31.278651 C43.9264174,23.3772928 38.0354998,17.6478254 30.8085412,17.6478254 L29.1724868,17.6478254 Z M29.9954207,61 C28.5430194,61 27.2055764,60.9887685 25.9031817,60.9677094 C20.7034165,60.8834732 15.6634716,58.5697848 12.4222052,54.7777506 C9.77816174,51.689089 8.60474479,47.9532123 9.11785184,44.2580497 C9.43048264,41.6186479 10.5183817,38.9848619 12.2651888,36.6304593 C12.3619221,36.4998932 12.4067839,36.3370365 12.3885588,36.1741798 C12.2637869,35.0159316 12.2581792,33.8394323 12.3759414,32.6783763 L12.5441732,31.0147108 C13.5872105,21.7374943 20.5814485,15 29.1752906,15 L30.7791006,15 C39.4023834,15 46.4008271,21.7290707 47.4466682,30.9978636 L47.6191058,32.6797803 C47.7424758,33.8211811 47.739672,34.9948726 47.6078904,36.1713719 C47.5896653,36.3342286 47.6345271,36.4984892 47.7326623,36.6304593 C49.4710578,38.9539753 50.5589569,41.6003968 50.8814012,44.2819167 C51.3959102,47.9546162 50.2252971,51.6722417 47.5854595,54.7623073 C44.3385854,58.5641691 39.2930327,60.8834732 34.0890617,60.9677094 C32.7852651,60.9887685 31.4464202,61 29.9954207,61 Z" id="Fill-118" fill="#243960"></path>
                <path d="M30,49 C29.3067298,49 28.7427812,48.415489 28.7427812,47.6969411 L28.7427812,47.4191948 C28.7427812,47.1400666 28.5681305,46.8941021 28.3108206,46.8111928 C26.8162901,46.3289366 25.6097334,45.1778783 25.0817815,43.7311099 C24.9631257,43.4049997 24.9737914,43.0512531 25.1124454,42.7348157 C25.2497662,42.4169964 25.4990768,42.1751774 25.8137148,42.0521952 C25.9563685,41.9969223 26.1056882,41.967904 26.2563412,41.967904 C26.7762938,41.967904 27.249584,42.3064506 27.4349004,42.8108159 C27.7828687,43.7656554 28.7961097,44.4068212 29.9573372,44.4068212 C30.6466077,44.4068212 31.2785502,44.1691477 31.737175,43.7366371 C32.0784773,43.4132906 32.4864401,42.8550342 32.4864401,42.0342315 C32.4864401,40.6220087 30.6399417,39.66026 29.5400419,39.2125495 C25.5910685,37.6013441 25.0017888,35.2328999 25.0017888,33.9657685 C25.0017888,32.5798003 25.5617378,31.2905596 26.5803116,30.3329565 C27.0656007,29.8755731 27.6562136,29.5176811 28.3334852,29.2703348 C28.5787962,29.1805163 28.7427812,28.9400791 28.7427812,28.6706237 L28.7427812,28.3030589 C28.7427812,27.584511 29.3067298,27 30,27 C30.6932702,27 31.2572188,27.584511 31.2572188,28.3030589 L31.2572188,28.5808052 C31.2572188,28.8585516 31.4318695,29.1058979 31.6891794,29.1888072 C33.1850431,29.6696816 34.392933,30.8221217 34.9182185,32.2688901 C35.0368743,32.5950003 35.0262086,32.9487469 34.8875546,33.2651843 C34.7502338,33.5830036 34.5009232,33.8248226 34.1862852,33.9478048 C34.0436315,34.0030777 33.8943118,34.0307142 33.7436588,34.0307142 C33.222373,34.0307142 32.750416,33.6921676 32.567766,33.1878023 C32.2197977,32.2343446 31.2065567,31.5945606 30.0453292,31.5945606 C29.3573919,31.5945606 28.7254495,31.8308523 28.2668246,32.2633629 C27.7815355,32.7179825 27.5148931,33.3218391 27.5148931,33.9657685 C27.5148931,35.3752277 29.3600583,36.3383581 30.4612913,36.7874505 C34.4102648,38.397274 34.9995444,40.7657182 34.9995444,42.0342315 C34.9995444,43.4201997 34.4395954,44.7108222 33.423688,45.6670435 C32.9370657,46.123045 32.3464528,46.4809371 31.6665148,46.7296652 C31.4212038,46.8194837 31.2572188,47.0599209 31.2572188,47.3307581 L31.2572188,47.6969411 C31.2572188,48.415489 30.6932702,49 30,49" id="Fill-119" fill="#243960"></path>
                <path d="M1.65190777,28 C1.33083214,28 1.15306924,27.9780387 1.15306924,27.9780387 C0.435127587,27.8929388 -0.0761130128,27.2478268 0.00932342165,26.539576 C0.086491814,25.887601 0.632182589,25.3948452 1.27708987,25.3948452 C1.32669812,25.3948452 1.37768438,25.3989629 1.42867064,25.4044533 C1.47414487,25.4099436 1.56371533,25.4168065 1.70289403,25.4168065 C2.71572918,25.4168065 6.22689104,25.0517005 8.86853047,20.3643434 C10.3939842,17.6562452 12.4720188,15.7401251 15.0461359,14.6667683 C15.267995,14.5748056 15.4181978,14.364801 15.4333558,14.1259722 C15.4498919,13.8871435 15.3300053,13.6592954 15.1219263,13.5385085 C14.0539708,12.9126125 12.897823,12.5969193 11.6865548,12.5969193 C11.2194104,12.5969193 10.741242,12.6449596 10.2644516,12.7396675 C6.11940649,13.5838036 3.64863993,17.4311423 2.7791175,19.0425499 L1.57473938,18.5237151 L0.435127587,17.921153 C1.51135106,15.8622846 4.45753004,11.2806161 9.7408089,10.2045143 C10.4146543,10.0686289 11.0884998,10 11.7402971,10 C16.9050673,10 19.6831295,14.2632301 19.798882,14.4457831 C20.0538133,14.8465762 20.0675934,15.3544304 19.8333322,15.7703218 C19.603205,16.1793503 19.1898029,16.4332774 18.7543527,16.4332774 L18.6675383,16.4319048 C18.4787513,16.4319048 14.0319227,16.4909257 11.133974,21.6298612 C7.89565752,27.3782217 3.42402478,28 1.65190777,28" id="Fill-120" fill="#243960"></path>
            </g>
        </g>
    </g>
</svg>