<?xml version="1.0" encoding="UTF-8"?>
<svg width="64px" height="63px" viewBox="0 0 64 63" version="1.1" xmlns="http://www.w3.org/2000/svg" xmlns:xlink="http://www.w3.org/1999/xlink">
    <!-- Generator: Sketch 52.6 (67491) - http://www.bohemiancoding.com/sketch -->
    <title>icon1</title>
    <desc>Created with Sketch.</desc>
    <g id="Home-Page" stroke="none" stroke-width="1" fill="none" fill-rule="evenodd">
        <g id="Advisor-Signup" transform="translate(-934.000000, -1328.000000)">
            <g id="icon1" transform="translate(934.500000, 1328.000000)">
                <polyline id="Fill-75" fill="#FFB960" points="31.5891239 61 61 29.1497742 48.4342477 13 13.6759396 13 2 29.1497742 31.5891239 61"></polyline>
                <path d="M16.3024029,14.7036006 C16.0860721,14.7036006 15.8840678,14.8096804 15.7608595,14.9874357 C15.6362186,15.165191 15.6089982,15.3931192 15.6849288,15.5952441 L19.4098301,25.5352053 C19.4943567,25.7617 19.6949283,25.9222531 19.9341816,25.9566574 C19.9657,25.9609579 19.9972184,25.9638249 20.0273041,25.9638249 C20.2336063,25.9638249 20.42988,25.8677797 20.5559536,25.700059 L28.0071887,15.7600978 C28.1576174,15.5594064 28.1805399,15.2913399 28.0687929,15.0677123 C27.9570458,14.8440847 27.7292538,14.7036006 27.4785393,14.7036006 L16.3024029,14.7036006 Z M35.5214607,14.7036006 C35.2707462,14.7036006 35.0429542,14.8440847 34.9312071,15.0677123 C34.8194601,15.2913399 34.8438152,15.5594064 34.9942439,15.7600978 L42.4440464,25.700059 C42.57012,25.8677797 42.7663937,25.9638249 42.9726959,25.9638249 C43.0027816,25.9638249 43.0343,25.9609579 43.0658184,25.9566574 C43.3050717,25.9222531 43.5056433,25.7617 43.5901699,25.5352053 L47.3150712,15.5952441 C47.3910018,15.3931192 47.3637814,15.165191 47.2405731,14.9874357 C47.1173649,14.8096804 46.9139279,14.7036006 46.6975971,14.7036006 L35.5214607,14.7036006 Z M12.8067263,16.8366641 C12.6004241,16.8366641 12.4041504,16.9341428 12.2780768,17.1018636 L4.82827432,27.0418248 C4.67784562,27.2410827 4.65349049,27.5091492 4.76523753,27.7327768 C4.87698457,27.9564044 5.10620926,28.0983219 5.35549111,28.0983219 L16.5316275,28.0983219 C16.7479584,28.0983219 16.9513953,27.9922422 17.0746035,27.8144869 C17.1978118,27.6352981 17.2264649,27.4088034 17.1505342,27.205245 L13.4242003,17.2652838 C13.3396737,17.0402226 13.1391021,16.8782359 12.8998488,16.8438317 C12.8683304,16.8395312 12.8382447,16.8366641 12.8067263,16.8366641 Z M31.5,16.0453664 C31.2922651,16.0453664 31.0959915,16.1428451 30.9727832,16.3091323 L22.9269965,27.0418248 C22.7765678,27.2410827 22.7522127,27.5091492 22.8639597,27.7327768 C22.9757067,27.9564044 23.2049314,28.0983219 23.4542133,28.0983219 L39.5457867,28.0983219 C39.7950686,28.0983219 40.0242933,27.9564044 40.1360403,27.7327768 C40.2477873,27.5091492 40.2234322,27.2410827 40.0730035,27.0418248 L32.0286494,16.3091323 C31.9040085,16.1428451 31.7077349,16.0453664 31.5,16.0453664 Z M50.1932737,16.8366641 C50.163188,16.8366641 50.1316696,16.8395312 50.1001512,16.8438317 C49.8608979,16.8782359 49.6603263,17.0402226 49.5757997,17.2652838 L45.8508984,27.205245 C45.7749678,27.4088034 45.8021882,27.6352981 45.9253965,27.8144869 C46.0486047,27.9922422 46.2520416,28.0983219 46.4683725,28.0983219 L57.6445089,28.0983219 C57.8952234,28.0983219 58.1230154,27.9564044 58.2347625,27.7327768 C58.3465095,27.5091492 58.3221544,27.2410827 58.1717257,27.0418248 L50.7219232,17.1018636 C50.5958496,16.9341428 50.3995759,16.8366641 50.1932737,16.8366641 Z M5.97583044,30.8019226 C5.71222204,30.8019226 5.47440142,30.9581752 5.36981766,31.2004385 C5.26523389,31.4412682 5.31394414,31.7222363 5.49445858,31.9143267 L25.6017621,53.3739776 C25.730701,53.5115946 25.9054848,53.5832701 26.083134,53.5832701 C26.2034769,53.5832701 26.3238199,53.5502994 26.431269,53.4829244 C26.6991753,53.3166372 26.8109224,52.9854962 26.7020406,52.6901931 L18.6591192,31.2305422 C18.5616987,30.9725103 18.3152822,30.8019226 18.0402126,30.8019226 L5.97583044,30.8019226 Z M44.9597874,30.8019226 C44.6847178,30.8019226 44.4383013,30.9725103 44.3408808,31.2305422 L36.299392,52.6901931 C36.1890776,52.9854962 36.3008247,53.3166372 36.568731,53.4829244 C36.6761801,53.5502994 36.7965231,53.5832701 36.916866,53.5832701 C37.0945152,53.5832701 37.269299,53.5115946 37.3982379,53.3739776 L57.5055414,31.9143267 C57.6860559,31.7222363 57.7347661,31.4412682 57.6301823,31.2004385 C57.5255986,30.9581752 57.287778,30.8019226 57.0241696,30.8019226 L44.9597874,30.8019226 Z M22.3367429,30.8019226 C22.1189794,30.8019226 21.9169752,30.9080024 21.7937669,31.0857577 C21.6705586,31.2649465 21.6419055,31.4914411 21.7178362,31.6935661 L30.882526,56.1463867 C30.9785138,56.4029851 31.2249304,56.5750063 31.5,56.5750063 C31.7750696,56.5750063 32.0214862,56.4029851 32.1189067,56.1463867 L41.2821638,31.6935661 C41.3580945,31.4914411 41.3294414,31.2649465 41.2062331,31.0857577 C41.0830248,30.9080024 40.8810206,30.8019226 40.6646898,30.8019226 L22.3367429,30.8019226 Z M31.5,63 C31.3681958,63 31.2149018,62.9670293 31.031522,62.8982208 C31.0114649,62.8910532 30.9928404,62.8853192 30.9756485,62.8795851 C30.957024,62.868117 30.9369668,62.856649 30.915477,62.8466144 C30.8681994,62.8236782 30.8252198,62.8050426 30.7793749,62.7878405 C30.7765096,62.7864069 30.7593177,62.7677713 30.7421259,62.7491357 C30.7048768,62.7118644 30.6676278,62.6745931 30.6275135,62.6401889 C30.5773706,62.5957501 30.5257951,62.5599123 30.4742195,62.5283751 L0.346931573,30.373303 C0.25667435,30.2772578 0.179311016,30.1568429 0.110543608,30.0048908 C0.110543608,30.0048908 0.0818905216,29.9031116 0.0704292869,29.8715743 C0.0331802743,29.7568935 0.0116904593,29.6694494 0.00309453335,29.5891728 C-0.00120342964,29.5389999 0.000229224693,29.4888271 0.000229224693,29.4372207 C0.00166187902,29.342609 0.0116904593,29.2522978 0.0331802743,29.1562526 C0.044641509,29.1075133 0.0546700893,29.0587739 0.0718619412,29.0086011 C0.0861884846,28.9684628 0.0962170649,28.9283245 0.106245645,28.8881862 C0.11770688,28.868117 0.134898732,28.8466144 0.149225275,28.8265452 C0.172147744,28.7935745 0.193637559,28.7620373 0.215127374,28.7290665 C0.242347807,28.6874947 0.265270276,28.6416224 0.285327437,28.5957501 L12.3038646,12.5605026 C12.3497096,12.5189308 12.381228,12.4888271 12.409881,12.4572898 C12.4399668,12.4228856 12.4686199,12.3927819 12.5015709,12.3612446 C12.6276445,12.2465638 12.7451222,12.1662872 12.8611672,12.1146808 C12.8754937,12.1089468 12.8912529,12.1017792 12.9070121,12.0931782 C13.0287877,12.0473058 13.1720531,12.0215027 13.346837,12.0143351 C13.3926819,12.0129016 13.4342289,12.0071676 13.4714779,12 L49.5285221,12 C49.5643385,12.0071676 49.6087507,12.0157686 49.6588936,12.0186356 C49.8308122,12.0272367 49.9697796,12.0516064 50.084392,12.0946117 C50.1130451,12.1103803 50.1374002,12.1232819 50.1617553,12.1361835 C50.2820983,12.1906569 50.3895474,12.2637659 50.4984291,12.3626781 C50.5285148,12.3913483 50.5586006,12.4214521 50.5886863,12.4558563 C50.6259353,12.4959946 50.6574537,12.5260983 50.6889721,12.5547685 L50.6918374,12.556202 L50.6904048,12.553335 L62.7161052,28.5957501 C62.737595,28.6459229 62.7605175,28.6903618 62.7891706,28.7333671 C62.8063624,28.7606038 62.8292849,28.7935745 62.8522074,28.8265452 C62.8651013,28.8466144 62.8808605,28.8666835 62.895187,28.8881862 C62.9037829,28.9283245 62.9123789,28.9641622 62.9238401,28.9985665 C62.9467626,29.0602074 62.9553585,29.1075133 62.9668197,29.1576861 C62.9883095,29.2537313 62.9983381,29.342609 62.9997708,29.4314866 C62.9997708,29.4888271 63.0012034,29.5389999 62.9969055,29.5920398 C62.9883095,29.6694494 62.9668197,29.758327 62.9295707,29.8715743 C62.9195421,29.9031116 62.8923217,29.9962897 62.8865911,30.0106248 C62.820689,30.1568429 62.7433257,30.2772578 62.6530684,30.373303 L32.5257805,62.5298086 C32.4684743,62.5642128 32.4211967,62.5971836 32.3767845,62.6358884 C32.3338048,62.6745931 32.2965558,62.7118644 32.2593068,62.7491357 C32.2464129,62.7620373 32.233519,62.7763724 32.2206251,62.7878405 C32.1647516,62.8093431 32.1260699,62.8265452 32.0873883,62.8451809 C32.0644658,62.856649 32.0444086,62.868117 32.0243515,62.8795851 C32.0071596,62.8853192 31.9871025,62.8910532 31.9670453,62.8996543 C31.7850982,62.9670293 31.6318042,63 31.5,63 Z" id="Fill-76" fill="#243960"></path>
                <path d="M49.5,7 C48.6728526,7 48,6.3690603 48,5.59343703 L48,1.40656297 C48,0.630939697 48.6728526,0 49.5,0 C50.3271474,0 51,0.630939697 51,1.40656297 L51,5.59343703 C51,6.3690603 50.3271474,7 49.5,7" id="Fill-77" fill="#243960"></path>
                <path d="M57.4062633,13 C56.6322965,13 56,12.3271474 56,11.5 C56,10.6728526 56.6322965,10 57.4062633,10 L61.5937367,10 C62.3691947,10 63,10.6728526 63,11.5 C63,12.3271474 62.3691947,13 61.5937367,13 L57.4062633,13" id="Fill-78" fill="#243960"></path>
                <path d="M1.40626331,13 C0.630805283,13 0,12.3271474 0,11.5 C0,10.6728526 0.630805283,10 1.40626331,10 L5.59373669,10 C6.36919472,10 7,10.6728526 7,11.5 C7,12.3271474 6.36919472,13 5.59373669,13 L1.40626331,13" id="Fill-79" fill="#243960"></path>
                <path d="M13.5,7 C12.6728526,7 12,6.3690603 12,5.59343703 L12,1.40656297 C12,0.630939697 12.6728526,0 13.5,0 C14.3271474,0 15,0.630939697 15,1.40656297 L15,5.59343703 C15,6.3690603 14.3271474,7 13.5,7" id="Fill-80" fill="#243960"></path>
            </g>
        </g>
    </g>
</svg>