<?xml version="1.0" encoding="UTF-8"?>
<svg width="56px" height="53px" viewBox="0 0 56 53" version="1.1" xmlns="http://www.w3.org/2000/svg" xmlns:xlink="http://www.w3.org/1999/xlink">
    <!-- Generator: Sketch 52.6 (67491) - http://www.bohemiancoding.com/sketch -->
    <title>Icon5</title>
    <desc>Created with Sketch.</desc>
    <g id="Home-Page" stroke="none" stroke-width="1" fill="none" fill-rule="evenodd">
        <g id="Advisor-Signup" transform="translate(-932.000000, -2069.000000)" fill="#FFB960" stroke="#2D4167" stroke-width="4">
            <path d="M960,2119.0649 C959.692406,2119.0649 959.386406,2118.9809 959.12025,2118.8159 C958.114594,2118.1889 934.5,2103.2729 934.5,2086.5449 C934.5,2076.8519 940.459031,2071.0649 950.4375,2071.0649 C955.564594,2071.0649 957.759187,2073.0539 959.521875,2074.6514 C959.682844,2074.7984 959.840625,2074.9409 959.996813,2075.0804 C960.156187,2074.9394 960.315563,2074.7939 960.476531,2074.6469 C962.221688,2073.0494 964.393969,2071.0649 969.5625,2071.0649 C979.394344,2071.0649 985.5,2076.9959 985.5,2086.5449 C985.5,2103.2729 961.885406,2118.1889 960.87975,2118.8159 C960.613594,2118.9809 960.306,2119.0649 960,2119.0649 Z" id="Icon5"></path>
        </g>
    </g>
</svg>