<?xml version="1.0" encoding="UTF-8"?>
<svg width="221px" height="46px" viewBox="0 0 221 46" version="1.1" xmlns="http://www.w3.org/2000/svg" xmlns:xlink="http://www.w3.org/1999/xlink">
    <!-- Generator: Sketch 52.6 (67491) - http://www.bohemiancoding.com/sketch -->
    <title>Branding/Work Mark Logo White</title>
    <desc>Created with Sketch.</desc>
    <g id="Home-Page" stroke="none" stroke-width="1" fill="none" fill-rule="evenodd">
        <g id="Advisor-Signup" transform="translate(-178.000000, -63.000000)">
            <g id="Branding/Work-Mark-Logo-Grey" transform="translate(177.000000, 62.000000)">
                <path d="M1.84900277,45.702931 L1.84900277,23.7884483 C1.84900277,23.4574138 2.11527143,23.1594828 2.48139083,23.1594828 L15.5951222,23.1594828 C15.9612416,23.1594828 16.2275102,23.4574138 16.2275102,23.7884483 L16.2275102,24.7484483 C16.2275102,25.0794828 15.9612416,25.3774138 15.5951222,25.3774138 L4.41183859,25.3774138 L4.41183859,33.4546552 L13.9642267,33.4546552 C14.2970625,33.4546552 14.5966147,33.7525862 14.5966147,34.0836207 L14.5966147,35.0436207 C14.5966147,35.4077586 14.2970625,35.6725862 13.9642267,35.6725862 L4.41183859,35.6725862 L4.41183859,44.1139655 L15.5951222,44.1139655 C15.9612416,44.1139655 16.2275102,44.4118966 16.2275102,44.742931 L16.2275102,45.702931 C16.2275102,46.0339655 15.9612416,46.3318966 15.5951222,46.3318966 L2.48139083,46.3318966 C2.11527143,46.3318966 1.84900277,46.0339655 1.84900277,45.702931 Z M33.1973824,46.2987931 L23.1457406,24.0201724 C22.9460391,23.5898276 23.2123078,23.1594828 23.7115615,23.1594828 L25.0429048,23.1594828 C25.342457,23.1594828 25.5421585,23.3581034 25.6087257,23.5236207 L33.8963376,42.0615517 L34.029472,42.0615517 L42.3170839,23.5236207 C42.3836511,23.3581034 42.6166361,23.1594828 42.8829048,23.1594828 L44.2142481,23.1594828 C44.7135018,23.1594828 44.9797705,23.5898276 44.780069,24.0201724 L34.66186,46.2987931 C34.5620093,46.4974138 34.3623078,46.662931 34.0960391,46.662931 L33.7632033,46.662931 C33.5302182,46.662931 33.2972332,46.4974138 33.1973824,46.2987931 Z M53.162777,45.702931 L53.162777,23.7884483 C53.162777,23.4574138 53.4290456,23.1594828 53.795165,23.1594828 L66.9088964,23.1594828 C67.2750158,23.1594828 67.5412844,23.4574138 67.5412844,23.7884483 L67.5412844,24.7484483 C67.5412844,25.0794828 67.2750158,25.3774138 66.9088964,25.3774138 L55.7256128,25.3774138 L55.7256128,33.4546552 L65.2780009,33.4546552 C65.6108367,33.4546552 65.9103889,33.7525862 65.9103889,34.0836207 L65.9103889,35.0436207 C65.9103889,35.4077586 65.6108367,35.6725862 65.2780009,35.6725862 L55.7256128,35.6725862 L55.7256128,44.1139655 L66.9088964,44.1139655 C67.2750158,44.1139655 67.5412844,44.4118966 67.5412844,44.742931 L67.5412844,45.702931 C67.5412844,46.0339655 67.2750158,46.3318966 66.9088964,46.3318966 L53.795165,46.3318966 C53.4290456,46.3318966 53.162777,46.0339655 53.162777,45.702931 Z M77.6214551,45.702931 L77.6214551,23.7884483 C77.6214551,23.4574138 77.8877238,23.1594828 78.2538432,23.1594828 L86.874291,23.1594828 C90.8683208,23.1594828 94.1301119,26.2712069 94.1301119,30.2105172 C94.1301119,33.2560345 92.0998133,35.805 89.2041417,36.9636207 L93.7639925,45.3718966 C93.9969775,45.8022414 93.7639925,46.3318966 93.1981716,46.3318966 L91.5007089,46.3318966 C91.2011566,46.3318966 91.0347387,46.1663793 90.9681716,46.0339655 L86.5414551,37.2615517 L80.184291,37.2615517 L80.184291,45.702931 C80.184291,46.0339655 79.8847387,46.3318966 79.5519029,46.3318966 L78.2538432,46.3318966 C77.8877238,46.3318966 77.6214551,46.0339655 77.6214551,45.702931 Z M80.2508581,35.0767241 L86.707873,35.0767241 C89.2707089,35.0767241 91.5007089,32.9581034 91.5007089,30.2436207 C91.5007089,27.7277586 89.2707089,25.5760345 86.707873,25.5760345 L80.2508581,25.5760345 L80.2508581,35.0767241 Z M102.679238,34.7787931 C102.679238,28.1581034 108.037894,22.8284483 114.694611,22.8284483 C118.056253,22.8284483 120.485954,23.987069 122.749238,25.907069 C123.015506,26.1718966 123.04879,26.5691379 122.782521,26.8339655 L121.883865,27.7277586 C121.617596,28.0587931 121.351327,28.0256897 121.018491,27.6946552 C119.287745,26.205 116.924611,25.2118966 114.661327,25.2118966 C109.402521,25.2118966 105.375208,29.6146552 105.375208,34.7456897 C105.375208,39.8436207 109.402521,44.2463793 114.661327,44.2463793 C117.556999,44.2463793 119.254462,43.0877586 121.018491,41.7636207 C121.351327,41.4987931 121.617596,41.5318966 121.817297,41.6643103 L122.815805,42.5581034 C123.082074,42.7567241 123.015506,43.2201724 122.782521,43.4518966 C120.519238,45.6367241 117.65685,46.662931 114.694611,46.662931 C108.037894,46.662931 102.679238,41.3994828 102.679238,34.7787931 Z M132.662991,45.702931 L132.662991,23.7884483 C132.662991,23.4574138 132.929259,23.1594828 133.295379,23.1594828 L134.593438,23.1594828 C134.926274,23.1594828 135.225826,23.4574138 135.225826,23.7884483 L135.225826,44.1139655 L144.811498,44.1139655 C145.177617,44.1139655 145.443886,44.4118966 145.443886,44.742931 L145.443886,45.702931 C145.443886,46.0339655 145.177617,46.3318966 144.811498,46.3318966 L133.295379,46.3318966 C132.929259,46.3318966 132.662991,46.0339655 132.662991,45.702931 Z M153.760027,45.702931 L153.760027,23.7884483 C153.760027,23.4574138 154.026296,23.1594828 154.392415,23.1594828 L167.506146,23.1594828 C167.872266,23.1594828 168.138534,23.4574138 168.138534,23.7884483 L168.138534,24.7484483 C168.138534,25.0794828 167.872266,25.3774138 167.506146,25.3774138 L156.322863,25.3774138 L156.322863,33.4546552 L165.875251,33.4546552 C166.208087,33.4546552 166.507639,33.7525862 166.507639,34.0836207 L166.507639,35.0436207 C166.507639,35.4077586 166.208087,35.6725862 165.875251,35.6725862 L156.322863,35.6725862 L156.322863,44.1139655 L167.506146,44.1139655 C167.872266,44.1139655 168.138534,44.4118966 168.138534,44.742931 L168.138534,45.702931 C168.138534,46.0339655 167.872266,46.3318966 167.506146,46.3318966 L154.392415,46.3318966 C154.026296,46.3318966 153.760027,46.0339655 153.760027,45.702931 Z M175.589302,46.3318966 C175.090048,46.3318966 174.82378,45.9015517 175.023481,45.4712069 L185.14169,23.1925862 C185.241541,22.9939655 185.407959,22.8284483 185.707511,22.8284483 L186.040347,22.8284483 C186.339899,22.8284483 186.506317,22.9939655 186.606168,23.1925862 L196.65781,45.4712069 C196.857511,45.9015517 196.591242,46.3318966 196.091989,46.3318966 L194.760645,46.3318966 C194.461093,46.3318966 194.261392,46.1332759 194.194824,45.9677586 L191.731839,40.5056897 L179.916168,40.5056897 L177.486466,45.9677586 C177.419899,46.1332759 177.220198,46.3318966 176.920645,46.3318966 L175.589302,46.3318966 Z M180.848108,38.4532759 L190.833183,38.4532759 C189.202287,34.845 187.604675,31.2036207 185.97378,27.5953448 L185.707511,27.5953448 L180.848108,38.4532759 Z M205.040518,45.702931 L205.040518,23.7884483 C205.040518,23.4574138 205.306786,23.1594828 205.672906,23.1594828 L214.293353,23.1594828 C218.287383,23.1594828 221.549174,26.2712069 221.549174,30.2105172 C221.549174,33.2560345 219.518876,35.805 216.623204,36.9636207 L221.183055,45.3718966 C221.41604,45.8022414 221.183055,46.3318966 220.617234,46.3318966 L218.919771,46.3318966 C218.620219,46.3318966 218.453801,46.1663793 218.387234,46.0339655 L213.960518,37.2615517 L207.603353,37.2615517 L207.603353,45.702931 C207.603353,46.0339655 207.303801,46.3318966 206.970965,46.3318966 L205.672906,46.3318966 C205.306786,46.3318966 205.040518,46.0339655 205.040518,45.702931 Z M207.669921,35.0767241 L214.126935,35.0767241 C216.689771,35.0767241 218.919771,32.9581034 218.919771,30.2436207 C218.919771,27.7277586 216.689771,25.5760345 214.126935,25.5760345 L207.669921,25.5760345 L207.669921,35.0767241 Z" id="EVERCLEAR" fill="#6B6B6B"></path>
                <rect id="Rectangle" fill="#79CEC6" x="1.37489797" y="1.5549569" width="219.671642" height="5.06573276" rx="1.53027344"></rect>
            </g>
        </g>
    </g>
</svg>