<?xml version="1.0" encoding="UTF-8"?>
<svg width="131px" height="26px" viewBox="0 0 131 26" version="1.1" xmlns="http://www.w3.org/2000/svg" xmlns:xlink="http://www.w3.org/1999/xlink">
    <!-- Generator: Sketch 52.6 (67491) - http://www.bohemiancoding.com/sketch -->
    <title>Group 6</title>
    <desc>Created with Sketch.</desc>
    <g id="Home-Page" stroke="none" stroke-width="1" fill="none" fill-rule="evenodd">
        <g id="Advisor-Signup" transform="translate(-1282.000000, -4823.000000)" fill="#6B6B6B">
            <g id="Group-37" transform="translate(0.000000, 4651.321691)">
                <g id="Group-36" transform="translate(311.000000, 171.000000)">
                    <g id="Group-6" transform="translate(970.000000, 1.000000)">
                        <path d="M97.9844,4.9502 C97.2764,5.9862 96.4204,6.8692 95.4154,7.5982 C95.4254,7.7472 95.4304,7.9692 95.4304,8.2652 C95.4304,9.6392 95.2294,11.0122 94.8284,12.3822 C94.4254,13.7512 93.8154,15.0652 92.9964,16.3232 C92.1764,17.5822 91.2014,18.6952 90.0694,19.6632 C88.9374,20.6312 87.5734,21.4022 85.9764,21.9782 C84.3804,22.5542 82.6714,22.8442 80.8524,22.8442 C77.9874,22.8442 75.3644,22.0762 72.9844,20.5432 C73.3544,20.5852 73.7674,20.6062 74.2214,20.6062 C76.6014,20.6062 78.7214,19.8772 80.5834,18.4182 C79.4724,18.3962 78.4784,18.0552 77.6004,17.3942 C76.7224,16.7332 76.1204,15.8892 75.7934,14.8642 C76.1414,14.9172 76.4634,14.9432 76.7594,14.9432 C77.2144,14.9432 77.6644,14.8862 78.1084,14.7682 C76.9234,14.5252 75.9434,13.9362 75.1664,13.0002 C74.3884,12.0642 74.0004,10.9772 74.0004,9.7402 L74.0004,9.6772 C74.7184,10.0792 75.4914,10.2962 76.3164,10.3272 C75.6184,9.8622 75.0624,9.2542 74.6504,8.5032 C74.2384,7.7522 74.0314,6.9382 74.0314,6.0602 C74.0314,5.1302 74.2644,4.2672 74.7294,3.4742 C76.0094,5.0512 77.5664,6.3112 79.4014,7.2582 C81.2364,8.2042 83.2004,8.7302 85.2944,8.8362 C85.2104,8.4342 85.1684,8.0432 85.1684,7.6622 C85.1684,6.2452 85.6674,5.0372 86.6674,4.0382 C87.6664,3.0382 88.8744,2.5392 90.2914,2.5392 C91.7714,2.5392 93.0194,3.0782 94.0354,4.1562 C95.1874,3.9342 96.2714,3.5222 97.2874,2.9192 C96.8954,4.1362 96.1444,5.0772 95.0344,5.7432 C96.0174,5.6372 97.0014,5.3732 97.9844,4.9502" id="Fill-16"></path>
                        <path d="M60.5,12.6914 C60.5,15.1754 60.473,16.8954 60.419,17.8504 C60.311,20.1074 59.638,21.8544 58.4,23.0914 C57.163,24.3284 55.416,25.0014 53.159,25.1094 C52.205,25.1644 50.484,25.1914 48,25.1914 C45.516,25.1914 43.795,25.1644 42.841,25.1094 C40.584,25.0014 38.837,24.3284 37.6,23.0914 C36.362,21.8544 35.689,20.1074 35.581,17.8504 C35.527,16.8954 35.5,15.1754 35.5,12.6914 C35.5,10.2064 35.527,8.4864 35.581,7.5314 C35.689,5.2744 36.362,3.5274 37.6,2.2914 C38.837,1.0534 40.584,0.3804 42.841,0.2724 C43.795,0.2174 45.516,0.1914 48,0.1914 C50.484,0.1914 52.205,0.2174 53.159,0.2724 C55.416,0.3804 57.163,1.0534 58.4,2.2914 C59.638,3.5274 60.311,5.2744 60.419,7.5314 C60.473,8.4864 60.5,10.2064 60.5,12.6914 M48,2.4374 C47.924,2.4374 47.509,2.4344 46.755,2.4284 C46.001,2.4234 45.429,2.4234 45.038,2.4284 C44.647,2.4344 44.124,2.4504 43.467,2.4774 C42.811,2.5044 42.252,2.5594 41.791,2.6404 C41.329,2.7214 40.941,2.8224 40.627,2.9414 C40.084,3.1584 39.607,3.4734 39.194,3.8854 C38.782,4.2974 38.468,4.7754 38.251,5.3184 C38.131,5.6324 38.031,6.0204 37.949,6.4814 C37.868,6.9424 37.813,7.5024 37.787,8.1584 C37.76,8.8144 37.743,9.3374 37.738,9.7284 C37.732,10.1194 37.732,10.6914 37.738,11.4464 C37.743,12.2004 37.746,12.6154 37.746,12.6914 C37.746,12.7664 37.743,13.1814 37.738,13.9364 C37.732,14.6904 37.732,15.2624 37.738,15.6534 C37.743,16.0444 37.76,16.5674 37.787,17.2234 C37.813,17.8794 37.868,18.4394 37.949,18.9004 C38.031,19.3614 38.131,19.7494 38.251,20.0644 C38.468,20.6064 38.782,21.0844 39.194,21.4964 C39.607,21.9084 40.084,22.2234 40.627,22.4404 C40.941,22.5594 41.329,22.6604 41.791,22.7414 C42.252,22.8234 42.811,22.8774 43.467,22.9044 C44.124,22.9314 44.647,22.9474 45.038,22.9534 C45.429,22.9584 46.001,22.9584 46.755,22.9534 C47.509,22.9474 47.924,22.9454 48,22.9454 C48.076,22.9454 48.491,22.9474 49.245,22.9534 C49.999,22.9584 50.571,22.9584 50.962,22.9534 C51.353,22.9474 51.876,22.9314 52.533,22.9044 C53.189,22.8774 53.748,22.8234 54.209,22.7414 C54.671,22.6604 55.059,22.5594 55.373,22.4404 C55.916,22.2234 56.393,21.9084 56.806,21.4964 C57.218,21.0844 57.532,20.6064 57.749,20.0644 C57.869,19.7494 57.969,19.3614 58.051,18.9004 C58.132,18.4394 58.187,17.8794 58.213,17.2234 C58.24,16.5674 58.257,16.0444 58.262,15.6534 C58.268,15.2624 58.268,14.6904 58.262,13.9364 C58.257,13.1814 58.254,12.7664 58.254,12.6914 C58.254,12.6154 58.257,12.2004 58.262,11.4464 C58.268,10.6914 58.268,10.1194 58.262,9.7284 C58.257,9.3374 58.24,8.8144 58.213,8.1584 C58.187,7.5024 58.132,6.9424 58.051,6.4814 C57.969,6.0204 57.869,5.6324 57.749,5.3184 C57.532,4.7754 57.218,4.2974 56.806,3.8854 C56.393,3.4734 55.916,3.1584 55.373,2.9414 C55.059,2.8224 54.671,2.7214 54.209,2.6404 C53.748,2.5594 53.189,2.5044 52.533,2.4774 C51.876,2.4504 51.353,2.4344 50.962,2.4284 C50.571,2.4234 49.999,2.4234 49.245,2.4284 C48.491,2.4344 48.076,2.4374 48,2.4374 M56.171,6.0174 C56.171,6.4294 56.024,6.7834 55.731,7.0764 C55.438,7.3694 55.086,7.5154 54.673,7.5154 C54.261,7.5154 53.908,7.3694 53.615,7.0764 C53.322,6.7834 53.176,6.4294 53.176,6.0174 C53.176,5.6054 53.322,5.2534 53.615,4.9604 C53.908,4.6674 54.261,4.5204 54.673,4.5204 C55.086,4.5204 55.438,4.6674 55.731,4.9604 C56.024,5.2534 56.171,5.6054 56.171,6.0174 M54.413,12.6914 C54.413,14.4704 53.789,15.9844 52.541,17.2324 C51.293,18.4794 49.779,19.1034 48,19.1034 C46.221,19.1034 44.707,18.4794 43.459,17.2324 C42.211,15.9844 41.587,14.4704 41.587,12.6914 C41.587,10.9114 42.211,9.3974 43.459,8.1504 C44.707,6.9024 46.221,6.2784 48,6.2784 C49.779,6.2784 51.293,6.9024 52.541,8.1504 C53.789,9.3974 54.413,10.9114 54.413,12.6914 M52.167,12.6914 C52.167,11.5414 51.76,10.5584 50.946,9.7454 C50.132,8.9314 49.15,8.5244 48,8.5244 C46.85,8.5244 45.868,8.9314 45.054,9.7454 C44.24,10.5584 43.833,11.5414 43.833,12.6914 C43.833,13.8404 44.24,14.8234 45.054,15.6364 C45.868,16.4514 46.85,16.8574 48,16.8574 C49.15,16.8574 50.132,16.4514 50.946,15.6364 C51.76,14.8234 52.167,13.8404 52.167,12.6914" id="Fill-18"></path>
                        <path d="M130.1162,0.1914 C130.4962,0.1914 130.8222,0.3264 131.0932,0.5974 C131.3642,0.8694 131.5002,1.1944 131.5002,1.5744 L131.5002,23.8074 C131.5002,24.1874 131.3642,24.5124 131.0932,24.7844 C130.8222,25.0554 130.4962,25.1914 130.1162,25.1914 L123.7532,25.1914 L123.7532,15.5064 L126.9912,15.5064 L127.4792,11.7304 L123.7532,11.7304 L123.7532,9.3224 C123.7532,8.7134 123.8802,8.2584 124.1352,7.9554 C124.3892,7.6504 124.8872,7.4994 125.6242,7.4994 L127.6102,7.4824 L127.6102,4.1134 C126.9272,4.0154 125.9612,3.9664 124.7132,3.9664 C123.2372,3.9664 122.0572,4.4014 121.1732,5.2694 C120.2882,6.1364 119.8462,7.3634 119.8462,8.9474 L119.8462,11.7304 L116.5912,11.7304 L116.5912,15.5064 L119.8462,15.5064 L119.8462,25.1914 L107.8842,25.1914 C107.5042,25.1914 107.1782,25.0554 106.9072,24.7844 C106.6362,24.5124 106.5002,24.1874 106.5002,23.8074 L106.5002,1.5744 C106.5002,1.1944 106.6362,0.8694 106.9072,0.5974 C107.1782,0.3264 107.5042,0.1914 107.8842,0.1914 L130.1162,0.1914 Z" id="Fill-20"></path>
                        <path d="M13.4355,0.1914 L13.8675,0.1914 C14.0415,0.2414 14.2205,0.1994 14.3975,0.2124 C15.6725,0.2194 16.8875,0.5244 18.0675,0.9834 C19.9215,1.7044 21.5125,2.8174 22.8465,4.2884 C23.5485,5.0614 24.1335,5.9224 24.6245,6.8494 C25.3055,8.1334 25.7385,9.4944 25.9375,10.9314 C25.9715,11.1784 25.9405,11.4314 25.9995,11.6764 L25.9995,13.1444 C25.9645,13.3024 25.9645,13.4614 25.9995,13.6194 L25.9995,13.7064 C25.9535,14.1684 25.9345,14.6314 25.8435,15.0894 C25.6515,16.0524 25.3585,16.9814 24.9505,17.8754 C24.5845,18.6754 24.1385,19.4264 23.6235,20.1404 C23.0185,20.9784 22.3105,21.7174 21.5145,22.3744 C20.1145,23.5284 18.5395,24.3544 16.7875,24.8284 C16.0085,25.0394 15.2185,25.1884 14.4065,25.1694 C14.2545,25.1804 14.1025,25.1434 13.9535,25.1914 L12.5285,25.1914 C11.9415,25.1534 11.3595,25.0834 10.7855,24.9504 C10.5745,24.9014 10.3645,24.8554 10.1585,24.7884 C9.9315,24.7144 9.9075,24.6524 10.0345,24.4464 C10.3975,23.8564 10.7235,23.2494 10.9715,22.6014 C11.1975,22.0154 11.3175,21.3994 11.4815,20.7954 C11.6575,20.1504 11.8005,19.4964 11.9805,18.8514 C11.9945,18.8024 12.0035,18.7534 12.0225,18.7064 C12.0825,18.5574 12.1275,18.5474 12.2235,18.6714 C13.1065,19.8134 14.3045,20.1594 15.6855,20.0494 C16.4105,19.9924 17.1025,19.8194 17.7545,19.4914 C18.8715,18.9314 19.7475,18.1124 20.4095,17.0594 C21.1825,15.8304 21.5935,14.4784 21.7595,13.0444 C21.8215,12.5064 21.8535,11.9694 21.8395,11.4294 C21.7945,9.6854 21.1725,8.1794 19.9695,6.9154 C18.8435,5.7324 17.4755,4.9814 15.8825,4.6454 C15.0865,4.4774 14.2815,4.4244 13.4625,4.4714 C12.5445,4.5234 11.6465,4.6554 10.7715,4.9344 C9.5535,5.3224 8.4675,5.9254 7.5425,6.8244 C6.3585,7.9744 5.5315,9.3174 5.2375,10.9544 C4.9715,12.4294 5.0965,13.8644 5.7935,15.2174 C6.1925,15.9934 6.7825,16.5714 7.5915,16.9144 C7.8995,17.0444 8.0905,16.9574 8.1815,16.6344 C8.2725,16.3164 8.3395,15.9924 8.4305,15.6734 C8.5035,15.4204 8.4025,15.2084 8.2595,15.0094 C8.1045,14.7934 7.9525,14.5754 7.8335,14.3354 C7.4795,13.6184 7.3795,12.8664 7.4445,12.0714 C7.5105,11.2484 7.6985,10.4644 8.0825,9.7364 C8.8565,8.2714 10.0055,7.2364 11.6075,6.7524 C12.5275,6.4734 13.4715,6.4224 14.4265,6.5124 C15.0715,6.5724 15.6935,6.7114 16.2765,6.9914 C17.7685,7.7094 18.6475,8.9014 18.8325,10.5374 C19.0495,12.4384 18.7405,14.2674 17.8255,15.9674 C17.4775,16.6134 17.0405,17.1934 16.3995,17.5844 C15.7875,17.9574 15.1285,18.1064 14.4165,17.9814 C13.3235,17.7904 12.5365,16.7284 12.8555,15.5064 C13.0785,14.6564 13.3545,13.8234 13.5955,12.9794 C13.7845,12.3224 13.9705,11.6654 13.9395,10.9684 C13.9135,10.3584 13.5845,9.6144 12.9385,9.4124 C12.3135,9.2164 11.7085,9.2774 11.1775,9.6844 C10.4545,10.2384 10.1135,11.0084 10.0025,11.8894 C9.8985,12.7304 9.9815,13.5534 10.3195,14.3394 C10.3645,14.4464 10.3585,14.5484 10.3315,14.6564 C9.9085,16.4124 9.4985,18.1704 9.0815,19.9274 C8.9445,20.5014 8.7905,21.0714 8.6895,21.6524 C8.5795,22.2774 8.5285,22.9074 8.5275,23.5414 C8.5275,23.6844 8.5345,23.8294 8.5245,23.9724 C8.5115,24.1704 8.4605,24.2054 8.2795,24.1204 C7.1715,23.6034 6.1525,22.9514 5.2295,22.1454 C4.1445,21.1984 3.2625,20.0864 2.5475,18.8434 C1.8725,17.6684 1.4075,16.4104 1.1595,15.0744 C1.0685,14.5844 1.0245,14.0924 1.0225,13.5954 C1.0095,13.4024 1.0485,13.2074 0.9995,13.0144 L0.9995,12.4534 C1.0475,12.2644 1.0095,12.0724 1.0225,11.8814 C1.0105,10.9304 1.1935,10.0104 1.4605,9.1034 C1.8955,7.6304 2.5925,6.2894 3.5165,5.0684 C4.2855,4.0534 5.1955,3.1784 6.2395,2.4434 C7.4565,1.5864 8.7785,0.9484 10.2175,0.5654 C10.9695,0.3664 11.7305,0.2134 12.5135,0.2124 C12.5485,0.2124 12.5855,0.2194 12.6155,0.1914 L12.9595,0.1914 C13.1185,0.2264 13.2775,0.2264 13.4355,0.1914" id="Fill-22"></path>
                    </g>
                </g>
            </g>
        </g>
    </g>
</svg>