<?xml version="1.0" encoding="UTF-8"?>
<svg width="52px" height="52px" viewBox="0 0 52 52" version="1.1" xmlns="http://www.w3.org/2000/svg" xmlns:xlink="http://www.w3.org/1999/xlink">
    <!-- Generator: Sketch 52.6 (67491) - http://www.bohemiancoding.com/sketch -->
    <title>icon4</title>
    <desc>Created with Sketch.</desc>
    <g id="Home-Page" stroke="none" stroke-width="1" fill="none" fill-rule="evenodd">
        <g id="Advisor-Signup" transform="translate(-1367.000000, -1685.000000)">
            <g id="icon4" transform="translate(1367.000000, 1684.650124)">
                <g id="Group-17" transform="translate(0.352447, 0.900124)">
                    <path d="M33.7826087,0 C35.557,0 37,1.42959375 37,3.1875 L37,47.8125 C37,49.5688125 35.557,51 33.7826087,51 L3.2173913,51 C1.4446087,51 0,49.5688125 0,47.8125 L0,3.1875 C0,1.42959375 1.4446087,0 3.2173913,0 L33.7826087,0 Z M3.2173913,47.8125 L33.7826087,47.8125 L33.7826087,3.1875 L3.2173913,3.1875 L3.2173913,47.8125 Z" id="Fill-79" fill="#243960"></path>
                    <polygon id="Path" fill="#FFB960" points="3.2173913 47.8125 33.7826087 47.8125 33.7826087 3.1875 3.2173913 3.1875"></polygon>
                    <path d="M15,39.5 C15,41.4339894 13.4326854,43 11.4991601,43 C9.56731461,43 8,41.4339894 8,39.5 C8,37.5660106 9.56731461,36 11.4991601,36 C13.4326854,36 15,37.5660106 15,39.5" id="Fill-70" fill="#81D6D4"></path>
                    <polygon id="Fill-71" fill="#6BC7E6" points="43 40 50 40 50 7 43 7"></polygon>
                    <path d="M27.3846154,14 L9.61538462,14 C8.72369231,14 8,14.6705 8,15.5 C8,16.3295 8.72369231,17 9.61538462,17 L27.3846154,17 C28.2779231,17 29,16.3295 29,15.5 C29,14.6705 28.2779231,14 27.3846154,14" id="Fill-72" fill="#243960"></path>
                    <path d="M14.5714286,11 L22.4285714,11 C23.2975714,11 24,10.3295 24,9.5 C24,8.6705 23.2975714,8 22.4285714,8 L14.5714286,8 C13.704,8 13,8.6705 13,9.5 C13,10.3295 13.704,11 14.5714286,11" id="Fill-73" fill="#243960"></path>
                    <path d="M27.3846154,21 L9.61538462,21 C8.72369231,21 8,21.6705 8,22.5 C8,23.3295 8.72369231,24 9.61538462,24 L27.3846154,24 C28.2779231,24 29,23.3295 29,22.5 C29,21.6705 28.2779231,21 27.3846154,21" id="Fill-74" fill="#243960"></path>
                    <path d="M27.3846154,27 L9.61538462,27 C8.72369231,27 8,27.6705 8,28.5 C8,29.3295 8.72369231,30 9.61538462,30 L27.3846154,30 C28.2779231,30 29,29.3295 29,28.5 C29,27.6705 28.2779231,27 27.3846154,27" id="Fill-75" fill="#243960"></path>
                    <path d="M49.3333333,4.78125 L49.3333333,1.59375 C49.3333333,0.71240625 48.5883333,0 47.6666667,0 L44.3333333,0 C43.4116667,0 42.6666667,0.71240625 42.6666667,1.59375 L42.6666667,4.78125 C41.745,4.78125 41,5.49365625 41,6.375 L41,39.84375 C41,40.7250937 41.745,41.4375 42.6666667,41.4375 L42.6666667,44.625 C42.6666667,45.5063437 43.4116667,46.21875 44.3333333,46.21875 L44.3333333,49.40625 C44.3333333,50.2875937 45.0783333,51 46,51 C46.9216667,51 47.6666667,50.2875937 47.6666667,49.40625 L47.6666667,46.21875 C48.5883333,46.21875 49.3333333,45.5063437 49.3333333,44.625 L49.3333333,41.4375 C50.255,41.4375 51,40.7250937 51,39.84375 L51,6.375 C51,5.49365625 50.255,4.78125 49.3333333,4.78125 Z" id="Fill-76" fill="#243960"></path>
                    <path d="M11.5,34 C8.46871429,34 6,36.4671429 6,39.5 C6,42.5328571 8.46871429,45 11.5,45 C14.5328571,45 17,42.5328571 17,39.5 C17,36.4671429 14.5328571,34 11.5,34 Z" id="Fill-77" fill="#243960"></path>
                    <path d="M27.5,38 L24.5,38 C23.6705,38 23,38.6705 23,39.5 C23,40.3295 23.6705,41 24.5,41 L27.5,41 C28.3295,41 29,40.3295 29,39.5 C29,38.6705 28.3295,38 27.5,38" id="Fill-78" fill="#243960"></path>
                    <path d="M11.5,41.8571429 C10.2004286,41.8571429 9.14285714,40.7995714 9.14285714,39.5 C9.14285714,38.2004286 10.2004286,37.1428571 11.5,37.1428571 C12.7995714,37.1428571 13.8571429,38.2004286 13.8571429,39.5 C13.8571429,40.7995714 12.7995714,41.8571429 11.5,41.8571429 Z" id="Path" fill="#FFFFFF"></path>
                </g>
                <polygon id="Path" fill="#FFFFFF" points="45.3524466 39.7087912 48.3524466 39.7087912 48.3524466 9.70879117 45.3524466 9.70879117"></polygon>
            </g>
        </g>
    </g>
</svg>