<?xml version="1.0" encoding="UTF-8"?>
<svg width="59px" height="59px" viewBox="0 0 59 59" version="1.1" xmlns="http://www.w3.org/2000/svg" xmlns:xlink="http://www.w3.org/1999/xlink">
    <!-- Generator: Sketch 52.6 (67491) - http://www.bohemiancoding.com/sketch -->
    <title>icon2</title>
    <desc>Created with Sketch.</desc>
    <g id="Home-Page" stroke="none" stroke-width="1" fill="none" fill-rule="evenodd">
        <g id="Advisor-Signup" transform="translate(-1367.000000, -1334.000000)">
            <g id="icon2" transform="translate(1367.000000, 1334.000000)">
                <path d="M26.8449762,21.0570401 C26.8449762,26.5814381 23.9609422,31.058419 20.4040882,31.058419 C16.8472342,31.058419 13.9650186,26.5814381 13.9650186,21.0570401 C13.9650186,15.5326421 16.8472342,11.0556613 20.4040882,11.0556613 C23.9609422,11.0556613 26.8449762,15.5326421 26.8449762,21.0570401" id="Fill-63" fill="#FFB960"></path>
                <path d="M47.3023421,10.146445 C47.3023421,14.7070738 44.6219725,18.4057655 41.3160622,18.4057655 C38.0101519,18.4057655 35.3297823,14.7070738 35.3297823,10.146445 C35.3297823,5.58581625 38.0101519,1.8871245 41.3160622,1.8871245 C44.6219725,1.8871245 47.3023421,5.58581625 47.3023421,10.146445" id="Fill-64" fill="#FFB960"></path>
                <path d="M20.4040882,12.8740938 C24.0755034,12.8740938 25.8593858,15.0834893 25.8593858,19.6277522 C25.8593858,24.8375614 23.3608595,29.2399865 20.4040882,29.2399865 C17.4473169,29.2399865 14.9487906,24.8375614 14.9487906,19.6277522 C14.9487906,15.0834893 16.7344914,12.8740938 20.4040882,12.8740938 Z M20.4040882,32.8768515 C25.502973,32.8768515 29.4962508,27.0578675 29.4962508,19.6277522 C29.4962508,13.1214006 26.0976004,9.23722875 20.4040882,9.23722875 C14.710576,9.23722875 11.3119256,13.1214006 11.3119256,19.6277522 C11.3119256,27.0578675 15.3070218,32.8768515 20.4040882,32.8768515 Z" id="Fill-65" fill="#243960"></path>
                <path d="M35.5279915,38.8049416 L26.6267643,35.8499887 L26.041229,35.8499887 C24.384637,36.9101349 22.4698275,37.5138545 20.4095435,37.5138545 C18.3565332,37.5138545 16.4489974,36.9155902 14.7960423,35.8608993 L5.44384383,38.7485701 L1.70332813,56.0800505 L38.3101932,56.0800505 L35.5279915,38.8049416" id="Fill-66" fill="#FFB960"></path>
                <path d="M41.3160622,3.78193118 C44.4183081,3.78193118 45.8621435,5.43306791 45.8621435,8.9771929 C45.8621435,13.0595739 43.7818567,16.5109588 41.3160622,16.5109588 C38.8520861,16.5109588 36.7699809,13.0595739 36.7699809,8.9771929 C36.7699809,5.43306791 38.2138163,3.78193118 41.3160622,3.78193118 Z M41.3160622,20.1478239 C45.9057859,20.1478239 49.4990085,15.2416929 49.4990085,8.9771929 C49.4990085,3.44552117 46.440405,0.14506614 41.3160622,0.14506614 C36.1935378,0.14506614 33.1331158,3.44552117 33.1331158,8.9771929 C33.1331158,15.2416929 36.7281569,20.1478239 41.3160622,20.1478239 Z" id="Fill-67" fill="#243960"></path>
                <path d="M55.1070544,24.6575365 C54.121464,23.6646724 53.0758653,23.4555526 52.3703135,23.4555526 L51.6520326,23.4628264 C50.1627364,23.4810107 49.8445107,23.4955582 49.0462188,22.5863419 C48.3843094,21.829874 47.2314232,21.7589551 46.4804106,22.4172277 C45.7257611,23.0791371 45.6493869,24.2283865 46.3131148,24.983036 C48.2151952,27.1542444 49.9790747,27.123331 51.7120409,27.0996914 L52.3612213,27.0905993 C53.5195628,27.4906544 54.8051946,33.1241584 54.9433955,40.1505816 L49.4971901,40.1505816 L49.4971901,32.8768515 C49.4971901,31.8712584 48.6843508,31.058419 47.6787576,31.058419 C46.6749828,31.058419 45.8621435,31.8712584 45.8621435,32.8768515 L45.8621435,40.1505816 L37.9446883,40.1505816 C37.5246304,39.2631866 37.0409273,38.483079 36.4663027,37.902999 C35.567997,36.9937828 34.475119,36.5137166 33.3095038,36.5137166 L32.7712478,36.515535 C30.7491508,36.5373562 30.0890598,36.5319009 29.0580086,35.3317354 C28.4070097,34.5679938 27.2577604,34.480709 26.4958371,35.1335263 C25.7320955,35.7863436 25.6429923,36.9337745 26.2994464,37.6956977 C28.4233756,40.1760397 30.5072993,40.1833134 32.7912505,40.1524001 L33.3095038,40.1505816 C33.3895148,40.1505816 33.5731765,40.1505816 33.8804916,40.4615336 C35.8334881,42.4327144 36.6372353,49.6009754 36.7554334,54.6980418 L31.3146833,54.6980418 L31.3146833,47.4243117 C31.3146833,46.4187185 30.501844,45.6058792 29.4962508,45.6058792 C28.492476,45.6058792 27.6778183,46.4187185 27.6778183,47.4243117 L27.6778183,54.6980418 L13.1321765,54.6980418 L13.1321765,47.4243117 C13.1321765,46.4187185 12.3193372,45.6058792 11.313744,45.6058792 C10.3081508,45.6058792 9.49531149,46.4187185 9.49531149,47.4243117 L9.49531149,54.6980418 L4.05456138,54.6980418 C4.18185166,49.3754898 5.06742829,42.3436112 6.9295032,40.4615336 C7.23681829,40.1505816 7.42229841,40.1505816 7.50230944,40.1505816 L8.02056271,40.1524001 C10.2699637,40.1633107 12.3866192,40.1760397 14.5123668,37.6956977 C15.1670025,36.9337745 15.0778993,35.7863436 14.3141577,35.1335263 C13.5540529,34.480709 12.4048035,34.5679938 11.7519862,35.3317354 C10.7227534,36.5319009 10.0390228,36.5391746 8.04056547,36.515535 L7.50230944,36.5137166 C6.3366942,36.5137166 5.24381625,36.9937828 4.34551058,37.902999 C0.455883419,41.8326317 0.379509253,54.1125065 0.404967308,56.5346586 C0.414059471,57.5329781 1.22508038,58.3349068 2.22339983,58.3349068 L38.5884134,58.3349068 C39.5849144,58.3349068 40.3959353,57.5329781 40.4068459,56.5346586 C40.4068459,56.5055637 40.4068459,56.4637398 40.4068459,56.4328264 L40.4068459,55.6054396 C40.39048,53.2251115 40.2213658,48.1062239 39.179404,43.7874467 L56.7709202,43.7874467 C57.7692396,43.7874467 58.5802606,42.9818811 58.5893527,41.98538 C58.6111739,39.6996104 58.5420735,28.1234689 55.1070544,24.6575365" id="Fill-68" fill="#243960"></path>
            </g>
        </g>
    </g>
</svg>