<?xml version="1.0" encoding="UTF-8"?>
<svg width="58px" height="67px" viewBox="0 0 58 67" version="1.1" xmlns="http://www.w3.org/2000/svg" xmlns:xlink="http://www.w3.org/1999/xlink">
    <!-- Generator: Sketch 52.6 (67491) - http://www.bohemiancoding.com/sketch -->
    <title>icon6</title>
    <desc>Created with Sketch.</desc>
    <g id="Home-Page" stroke="none" stroke-width="1" fill="none" fill-rule="evenodd">
        <g id="Advisor-Signup" transform="translate(-1367.000000, -2062.000000)">
            <g id="icon6" transform="translate(1367.000000, 2062.064898)">
                <polyline id="Fill-43" fill="#FFB960" points="29.2473234 2 47.1539502 9.59767349 55 9.59767349 55 34.2082498 41.7190448 58.3007087 29.3011343 64 13.1764776 55.0199893 3 33.0331595 3 9.85673218 19.7310647 7.35318893 29.2473234 2"></polyline>
                <polyline id="Fill-44" fill="#FFFFFE" points="43 44.3036018 28.9989533 52 15 44.3036018 15 25 43 25 43 44.3036018"></polyline>
                <g id="Group-48">
                    <path d="M32.712,35.0625 C32.712,37.1023125 31.0507143,38.7585 29,38.7585 C26.9513571,38.7585 25.2900714,37.1023125 25.2900714,35.0625 C25.2900714,33.020625 26.9513571,31.3665 29,31.3665 C31.0507143,31.3665 32.712,33.020625 32.712,35.0625" id="Fill-45" fill="#FFB960"></path>
                    <path d="M29.0642143,61.8853125 C3.78864286,54.272625 3.70164286,21.718125 4.11592857,12.0305625 C16.5548571,12.64725 25.5800714,6.8330625 28.9979286,4.18275 C32.4012857,6.8248125 41.3560714,12.6451875 53.7307857,12.03675 C54.2983571,21.96975 54.114,54.3015 29.0642143,61.8853125 Z M57.8570714,11.682 C57.7286429,9.4895625 55.8105,7.891125 53.6707143,7.9096875 C42.4684286,8.5243125 34.3877857,3.15975 31.436,0.8435625 C29.9984286,-0.2805 27.9995,-0.2825625 26.5598571,0.845625 C23.6080714,3.1618125 15.5108571,8.514 4.32928571,7.9096875 C2.13564286,7.8601875 0.267214286,9.4895625 0.142928571,11.682 C-0.4785,22.2399375 -0.310714286,57.3478125 27.8669286,65.8329375 C28.2356429,65.946375 28.6167857,66 28.9979286,66 C29.3811429,66 29.7602143,65.946375 30.131,65.8329375 C58.3107143,57.3478125 58.4785,22.2399375 57.8570714,11.682 Z" id="Fill-47" fill="#243960"></path>
                </g>
                <path d="M29,37.5 C27.896,37.5 27,36.548 27,35.375 C27,34.202 27.896,33.25 29,33.25 C30.104,33.25 31,34.202 31,35.375 C31,36.548 30.104,37.5 29,37.5 Z M29,29 C25.692,29 23,31.86025 23,35.375 C23,38.14175 24.678,40.477125 27,41.356875 L27,43.875 C27,45.050125 27.896,46 29,46 C30.106,46 31,45.050125 31,43.875 L31,41.359 C33.324,40.477125 35,38.14175 35,35.375 C35,31.86025 32.31,29 29,29 Z" id="Fill-49" fill="#243960"></path>
                <path d="M41.875,37.6 C41.875,44.38345 36.3248125,49.9 29.5,49.9 C22.67725,49.9 17.125,44.38345 17.125,37.6 L17.125,27.35 L41.875,27.35 L41.875,37.6 Z M29.5,17.1 C32.9134375,17.1 35.6875,19.8593 35.6875,23.25 L23.3125,23.25 C23.3125,19.8593 26.088625,17.1 29.5,17.1 Z M43.9375,23.25 L39.8125,23.25 C39.8125,17.59815 35.1863125,13 29.5,13 C23.8136875,13 19.1875,17.59815 19.1875,23.25 L15.0625,23.25 C13.924,23.25 13,24.16635 13,25.3 L13,37.6 C13,46.64255 20.4023125,54 29.5,54 C38.5976875,54 46,46.64255 46,37.6 L46,25.3 C46,24.16635 45.0780625,23.25 43.9375,23.25 Z" id="Fill-50" fill="#243960"></path>
            </g>
        </g>
    </g>
</svg>