<?xml version="1.0" encoding="UTF-8"?>
<svg width="146px" height="47px" viewBox="0 0 146 47" version="1.1" xmlns="http://www.w3.org/2000/svg" xmlns:xlink="http://www.w3.org/1999/xlink">
    <!-- Generator: Sketch 52.6 (67491) - http://www.bohemiancoding.com/sketch -->
    <title>iOS-button</title>
    <desc>Created with Sketch.</desc>
    <g id="Home-Page" stroke="none" stroke-width="1" fill="none" fill-rule="evenodd">
        <g id="Advisor-Signup" transform="translate(-311.000000, -5016.000000)">
            <g id="iOS-button" transform="translate(311.000000, 5016.000000)">
                <path d="M140.1611,45.8216906 L4.8391,45.8216906 C2.4421,45.8216906 0.5001,43.8796906 0.5001,41.4826906 L0.5001,5.16069056 C0.5001,2.76369056 2.4421,0.821690563 4.8391,0.821690563 L140.1611,0.821690563 C142.5571,0.821690563 144.5001,2.76369056 144.5001,5.16069056 L144.5001,41.4826906 C144.5001,43.8796906 142.5571,45.8216906 140.1611,45.8216906 Z" id="Stroke-2" stroke="#D9D9DD"></path>
                <path d="M78.3066,9.08439056 C78.3066,10.4633906 77.8026,11.7513906 76.7986,12.9423906 C75.5856,14.3593906 74.1196,15.1793906 72.5306,15.0503906 C72.5096,14.8843906 72.4976,14.7103906 72.4976,14.5263906 C72.4976,13.2033906 73.0756,11.7863906 74.0986,10.6273906 C74.6096,10.0403906 75.2596,9.55339056 76.0476,9.16339056 C76.8336,8.78039056 77.5776,8.56839056 78.2776,8.53239056 C78.2976,8.71739056 78.3066,8.90039056 78.3066,9.08439056 M83.6276,30.0243906 C83.2106,30.9873906 82.7176,31.8753906 82.1456,32.6903906 C81.3666,33.8023906 80.7276,34.5713906 80.2356,34.9983906 C79.4726,35.6993906 78.6556,36.0593906 77.7806,36.0793906 C77.1526,36.0793906 76.3946,35.9003906 75.5126,35.5383906 C74.6286,35.1773906 73.8156,34.9983906 73.0726,34.9983906 C72.2916,34.9983906 71.4556,35.1773906 70.5616,35.5383906 C69.6656,35.9003906 68.9446,36.0903906 68.3926,36.1083906 C67.5536,36.1443906 66.7166,35.7743906 65.8826,34.9983906 C65.3496,34.5333906 64.6826,33.7373906 63.8846,32.6083906 C63.0286,31.4033906 62.3246,30.0063906 61.7726,28.4123906 C61.1816,26.6913906 60.8846,25.0243906 60.8846,23.4113906 C60.8846,21.5633906 61.2846,19.9693906 62.0836,18.6333906 C62.7126,17.5603906 63.5486,16.7143906 64.5956,16.0923906 C65.6426,15.4713906 66.7736,15.1543906 67.9926,15.1343906 C68.6586,15.1343906 69.5326,15.3403906 70.6186,15.7453906 C71.7016,16.1513906 72.3966,16.3573906 72.7026,16.3573906 C72.9296,16.3573906 73.7026,16.1173906 75.0116,15.6363906 C76.2496,15.1903906 77.2956,15.0063906 78.1516,15.0793906 C80.4716,15.2663906 82.2146,16.1813906 83.3736,17.8283906 C81.2996,19.0863906 80.2726,20.8473906 80.2926,23.1063906 C80.3116,24.8653906 80.9506,26.3303906 82.2046,27.4933906 C82.7736,28.0323906 83.4086,28.4493906 84.1156,28.7463906 C83.9616,29.1903906 83.7996,29.6153906 83.6276,30.0243906" id="Fill-4" fill="#8D8D8D"></path>
            </g>
        </g>
    </g>
</svg>